<svg xmlns="http://www.w3.org/2000/svg" version="1.1" xmlns:xlink="http://www.w3.org/1999/xlink" width="23" height="32"><svg width="23" height="32" viewBox="0 0 23 32" fill="none" xmlns="http://www.w3.org/2000/svg">
<path d="M19.8095 32C18.6426 32 17.6403 31.6036 16.8025 30.8107C15.9647 30.0103 15.5459 29.0266 15.5459 27.8597C15.5459 26.6854 15.9124 25.7017 16.6454 24.9088C17.3785 24.1085 18.3172 23.7083 19.4617 23.7083C20.3593 23.7083 21.2682 23.8579 22.1882 24.1571L22.0423 24.6059C21.1447 24.3366 20.2845 24.202 19.4617 24.202C18.4818 24.202 17.6814 24.5535 17.0606 25.2567C16.4397 25.9598 16.1293 26.82 16.1293 27.8373C16.1293 28.8546 16.4883 29.7223 17.2064 30.4404C17.932 31.151 18.7997 31.5063 19.8095 31.5063C20.6922 31.5063 21.4552 31.3717 22.0984 31.1024L22.2668 31.4839C21.9825 31.6484 21.6085 31.7756 21.1447 31.8654C20.6884 31.9551 20.2434 32 19.8095 32Z" fill="black"></path>
<path d="M8.7415 31.8654V23.8766C9.45211 23.8242 10.0468 23.798 10.5255 23.798C11.2885 23.798 11.9168 23.9963 12.4105 24.3927C12.9042 24.7817 13.151 25.3352 13.151 26.0533C13.151 26.5395 13.0089 26.9921 12.7247 27.4109C12.4404 27.8298 12.1225 28.1627 11.771 28.4095C12.0477 28.791 12.3881 29.2473 12.792 29.7784C13.2034 30.302 13.4689 30.6311 13.5886 30.7658C14.0449 31.252 14.561 31.5288 15.137 31.5961L15.1258 31.9551C14.6695 31.9476 14.2992 31.8803 14.015 31.7532C13.7307 31.6185 13.4577 31.4166 13.1959 31.1473C12.9416 30.878 12.302 30.0402 11.2773 28.6339C10.5442 28.6339 9.87848 28.6115 9.28007 28.5666V31.8654H8.7415ZM10.9519 28.1851C11.281 28.1851 11.6326 27.9682 12.0066 27.5344C12.3806 27.1005 12.5676 26.5994 12.5676 26.0309C12.5676 25.4549 12.3731 25.021 11.9841 24.7293C11.6027 24.4301 11.094 24.2805 10.4582 24.2805C10.1216 24.2805 9.72888 24.2955 9.28007 24.3254V28.129C9.87848 28.1664 10.4358 28.1851 10.9519 28.1851Z" fill="black"></path>
<path d="M1.72791 29.0828L0.57223 31.8654H0L3.37728 23.7868H3.69145L7.07994 31.8654H6.47405L5.31837 29.0828H1.72791ZM3.5007 24.6844C3.49322 24.6919 3.47826 24.7368 3.45582 24.8191C3.3511 25.1407 3.25012 25.4137 3.15288 25.6382L1.91865 28.6227H5.12763L3.89341 25.6494C3.6316 25.0809 3.5007 24.7592 3.5007 24.6844Z" fill="black"></path>
<path d="M18.2688 19.5512C19.3235 19.5512 20.1687 19.2669 20.8045 18.6985C21.4478 18.1225 21.7695 17.2585 21.7695 16.1066C21.7695 14.9547 21.4067 14.0383 20.6811 13.3576C19.963 12.677 19.0729 12.3366 18.0107 12.3366C17.33 12.3366 16.7391 12.3553 16.2379 12.3927V19.4614C16.7241 19.5213 17.4011 19.5512 18.2688 19.5512ZM18.0107 11.8429C19.2449 11.8429 20.2772 12.2281 21.1075 12.9986C21.9378 13.7616 22.3529 14.8013 22.3529 16.1178C22.3529 16.7835 22.2444 17.3745 22.0275 17.8906C21.8181 18.3993 21.5264 18.8069 21.1523 19.1136C20.3819 19.7345 19.4207 20.0449 18.2688 20.0449C17.5133 20.0449 16.6568 20.0037 15.6993 19.9215V11.9215C16.4623 11.8691 17.2328 11.8429 18.0107 11.8429Z" fill="black"></path>
<path d="M8.04585 19.9439V19.5063C9.36236 18.4067 10.4096 17.3745 11.1875 16.4095C11.9654 15.4446 12.3544 14.6367 12.3544 13.986C12.3544 13.3352 12.1973 12.8901 11.8832 12.6508C11.5765 12.4039 11.109 12.2805 10.4806 12.2805C9.8523 12.2805 9.20901 12.3965 8.55076 12.6283L8.41612 12.1795C9.14917 11.9177 9.86352 11.7868 10.5592 11.7868C11.2623 11.7868 11.8345 11.9551 12.2759 12.2917C12.7172 12.6283 12.9379 13.1706 12.9379 13.9187C12.9379 14.6592 12.5713 15.5082 11.8383 16.4656C11.1052 17.4231 10.1216 18.4292 8.88737 19.4839H13.3642V19.9439H8.04585Z" fill="black"></path>
<path d="M1.72791 17.1613L0.57223 19.9439H0L3.37728 11.8654H3.69145L7.07994 19.9439H6.47405L5.31837 17.1613H1.72791ZM3.5007 12.763C3.49322 12.7705 3.47826 12.8153 3.45582 12.8976C3.3511 13.2193 3.25012 13.4923 3.15288 13.7167L1.91865 16.7013H5.12763L3.89341 13.7279C3.6316 13.1594 3.5007 12.8378 3.5007 12.763Z" fill="black"></path>
<path d="M17.31 8.02244V0H21.0351V0.471248H17.8486V3.42216H20.7322V3.88219H17.8486V7.55119H21.1586V8.02244H17.31Z" fill="black"></path>
<path d="M13.814 8.02244V4.00561H8.30487V8.02244H7.7663V0H8.30487V3.52314H13.814V0H14.3526V8.02244H13.814Z" fill="black"></path>
<path d="M2.78261 0.471248H0.0673218V0H6.03647V0.471248H3.32118V8.02244H2.78261V0.471248Z" fill="black"></path>
</svg><style>@media (prefers-color-scheme: light) { :root { filter: none; } }
@media (prefers-color-scheme: dark) { :root { filter: none; } }
</style></svg>