<svg width="100" height="144" viewBox="0 0 100 144" fill="none" xmlns="http://www.w3.org/2000/svg">
<path d="M87.8592 144C82.6838 144 78.2382 142.242 74.5225 138.725C70.8068 135.175 68.949 130.813 68.949 125.637C68.949 120.429 70.5746 116.066 73.8258 112.549C77.0771 108.999 81.2406 107.225 86.3166 107.225C90.2977 107.225 94.3285 107.888 98.4092 109.215L97.7622 111.206C93.7811 110.011 89.9659 109.414 86.3166 109.414C81.9705 109.414 78.4207 110.973 75.6671 114.092C72.9135 117.21 71.5367 121.026 71.5367 125.538C71.5367 130.05 73.1291 133.898 76.314 137.083C79.5321 140.235 83.3805 141.81 87.8592 141.81C91.774 141.81 95.1579 141.213 98.0111 140.019L98.7575 141.711C97.4968 142.441 95.838 143.005 93.7811 143.403C91.7574 143.801 89.7834 144 87.8592 144Z" fill="black"/>
<path d="M38.7703 143.403V107.971C41.922 107.739 44.5595 107.623 46.6828 107.623C50.0667 107.623 52.8535 108.502 55.0431 110.26C57.2327 111.985 58.3275 114.44 58.3275 117.625C58.3275 119.782 57.6971 121.789 56.4365 123.647C55.1758 125.504 53.7658 126.981 52.2065 128.076C53.434 129.768 54.9435 131.791 56.735 134.147C58.5597 136.469 59.7375 137.929 60.2683 138.526C62.292 140.682 64.5811 141.91 67.1357 142.209L67.0859 143.801C65.0622 143.768 63.42 143.469 62.1593 142.905C60.8986 142.308 59.6877 141.412 58.5265 140.218C57.3986 139.024 54.562 135.308 50.0169 129.071C46.7657 129.071 43.813 128.971 41.159 128.772V143.403H38.7703ZM48.5738 127.08C50.0335 127.08 51.5928 126.118 53.2516 124.194C54.9104 122.27 55.7398 120.047 55.7398 117.526C55.7398 114.971 54.8772 113.047 53.152 111.753C51.4601 110.426 49.2041 109.762 46.3842 109.762C44.8912 109.762 43.1495 109.829 41.159 109.962V126.831C43.813 126.997 46.2846 127.08 48.5738 127.08Z" fill="black"/>
<path d="M7.66363 131.061L2.53796 143.403H0L14.9789 107.573H16.3723L31.401 143.403H28.7137L23.5881 131.061H7.66363ZM15.5263 111.554C15.4931 111.587 15.4268 111.786 15.3273 112.151C14.8628 113.578 14.4149 114.789 13.9836 115.784L8.50962 129.021H22.7421L17.2681 115.834C16.1069 113.312 15.5263 111.886 15.5263 111.554Z" fill="black"/>
<path d="M81.0257 87.7502C85.7035 87.7502 89.4523 86.4896 92.2723 83.9682C95.1254 81.4136 96.552 77.5818 96.552 72.4727C96.552 67.3637 94.9429 63.2996 91.7249 60.2806C88.54 57.2616 84.5921 55.7521 79.8811 55.7521C76.8621 55.7521 74.2412 55.835 72.0184 56.0009V87.3521C74.1748 87.6175 77.1773 87.7502 81.0257 87.7502ZM79.8811 53.5625C85.3551 53.5625 89.9334 55.271 93.6159 58.6882C97.2984 62.0721 99.1397 66.6835 99.1397 72.5225C99.1397 75.4752 98.6586 78.0961 97.6965 80.3852C96.7676 82.6412 95.4738 84.4492 93.815 85.8095C90.3978 88.5631 86.1347 89.9399 81.0257 89.9399C77.6749 89.9399 73.8762 89.7574 69.6297 89.3925V53.9108C73.0137 53.6786 76.4308 53.5625 79.8811 53.5625Z" fill="black"/>
<path d="M35.6849 89.492V87.5512C41.5239 82.6744 46.1685 78.0961 49.6188 73.8164C53.0691 69.5367 54.7943 65.9537 54.7943 63.0674C54.7943 60.1811 54.0976 58.2071 52.7042 57.1455C51.344 56.0507 49.2705 55.5033 46.4837 55.5033C43.6969 55.5033 40.8438 56.0175 37.9243 57.046L37.3271 55.0554C40.5784 53.8943 43.7467 53.3137 46.832 53.3137C49.9506 53.3137 52.4885 54.0601 54.4459 55.5531C56.4033 57.046 57.382 59.4512 57.382 62.7688C57.382 66.0532 55.7564 69.8187 52.5051 74.0652C49.2539 78.3117 44.8912 82.7739 39.4172 87.4517H59.273V89.492H35.6849Z" fill="black"/>
<path d="M7.66363 77.1506L2.53796 89.492H0L14.9789 53.662H16.3723L31.401 89.492H28.7137L23.5881 77.1506H7.66363ZM15.5263 57.6431C15.4931 57.6763 15.4268 57.8754 15.3273 58.2403C14.8628 59.6669 14.4149 60.8778 13.9836 61.8731L8.50962 75.1102H22.7421L17.2681 61.9228C16.1069 59.4015 15.5263 57.9749 15.5263 57.6431Z" fill="black"/>
<path d="M76.7736 35.5812V0H93.2952V2.09008H79.1622V15.178H91.9515V17.2183H79.1622V33.4911H93.8426V35.5812H76.7736Z" fill="black"/>
<path d="M61.2678 35.5812V17.7657H36.8338V35.5812H34.4451V0H36.8338V15.6258H61.2678V0H63.6565V35.5812H61.2678Z" fill="black"/>
<path d="M12.3414 2.09008H0.298584V0H26.773V2.09008H14.7301V35.5812H12.3414V2.09008Z" fill="black"/>
</svg>
