<svg width="148" height="50" viewBox="0 0 148 50" fill="none" xmlns="http://www.w3.org/2000/svg">
<path d="M127.05 46.7727C125.474 46.7727 124.121 46.2374 122.989 45.1667C121.858 44.0858 121.292 42.7576 121.292 41.1818C121.292 39.5959 121.787 38.2677 122.777 37.197C123.767 36.1161 125.035 35.5757 126.58 35.5757C127.792 35.5757 129.02 35.7778 130.262 36.1818L130.065 36.7879C128.853 36.4242 127.691 36.2424 126.58 36.2424C125.257 36.2424 124.176 36.7172 123.338 37.6667C122.5 38.6161 122.08 39.7778 122.08 41.1515C122.08 42.5252 122.565 43.697 123.535 44.6667C124.515 45.6262 125.686 46.106 127.05 46.106C128.242 46.106 129.272 45.9242 130.141 45.5606L130.368 46.0757C129.984 46.298 129.479 46.4697 128.853 46.5909C128.237 46.7121 127.636 46.7727 127.05 46.7727Z" fill="white"/>
<path d="M114.545 46.5909V35.7576H115.273V45.9242H120.258V46.5909H114.545Z" fill="white"/>
<path d="M106.496 46.5909V35.7576H107.223V45.9242H112.208V46.5909H106.496Z" fill="white"/>
<path d="M97.4321 36.7121C96.6948 36.399 95.9624 36.2424 95.2352 36.2424C93.7604 36.2424 93.023 36.7879 93.023 37.8788C93.023 38.3535 93.1897 38.798 93.523 39.2121C93.8564 39.6161 94.2604 39.9798 94.7352 40.303C95.2099 40.6162 95.6847 40.9394 96.1594 41.2727C96.6342 41.606 97.0382 42.005 97.3715 42.4697C97.7049 42.9343 97.8715 43.4394 97.8715 43.9848C97.8715 44.904 97.5634 45.601 96.9473 46.0757C96.3311 46.5404 95.4776 46.7727 94.3867 46.7727C93.3059 46.7727 92.3816 46.4949 91.614 45.9394L91.9776 45.3939C92.7049 45.8687 93.5028 46.106 94.3715 46.106C95.2402 46.106 95.9069 45.9343 96.3715 45.5909C96.8362 45.2374 97.0685 44.7323 97.0685 44.0757C97.0685 43.6212 96.9018 43.1919 96.5685 42.7879C96.2352 42.3737 95.8311 42.005 95.3564 41.6818C94.8816 41.3485 94.4069 41.0101 93.9321 40.6667C93.4574 40.3232 93.0533 39.9141 92.72 39.4394C92.3867 38.9646 92.22 38.4545 92.22 37.9091C92.22 37.1919 92.4826 36.6262 93.0079 36.2121C93.5432 35.7879 94.2604 35.5757 95.1594 35.5757C96.0685 35.5757 96.9119 35.7576 97.6897 36.1212L97.4321 36.7121Z" fill="white"/>
<path d="M87.8315 45.5454C87.1345 46.3636 86.0739 46.7727 84.6497 46.7727C83.2254 46.7727 82.1598 46.3586 81.4527 45.5303C80.7557 44.702 80.4073 43.5707 80.4073 42.1364V35.7576H81.1345V42.1364C81.1345 44.803 82.3012 46.1364 84.6345 46.1364C86.978 46.1364 88.1497 44.803 88.1497 42.1364V35.7576H88.877V42.1364C88.877 43.5808 88.5285 44.7172 87.8315 45.5454Z" fill="white"/>
<path d="M74.3601 46.7727C72.7843 46.7727 71.4308 46.2374 70.2994 45.1667C69.1681 44.0858 68.6025 42.7576 68.6025 41.1818C68.6025 39.5959 69.0974 38.2677 70.0873 37.197C71.0772 36.1161 72.3449 35.5757 73.8904 35.5757C75.1025 35.5757 76.3297 35.7778 77.5722 36.1818L77.3752 36.7879C76.1631 36.4242 75.0015 36.2424 73.8904 36.2424C72.5671 36.2424 71.4863 36.7172 70.6479 37.6667C69.8095 38.6161 69.3904 39.7778 69.3904 41.1515C69.3904 42.5252 69.8752 43.697 70.8449 44.6667C71.8247 45.6262 72.9964 46.106 74.3601 46.106C75.552 46.106 76.5823 45.9242 77.451 45.5606L77.6782 46.0757C77.2944 46.298 76.7893 46.4697 76.1631 46.5909C75.5469 46.7121 74.9459 46.7727 74.3601 46.7727Z" fill="white"/>
<path d="M59.414 46.5909V35.803C60.3736 35.7323 61.1766 35.697 61.8231 35.697C62.8534 35.697 63.7019 35.9646 64.3686 36.5C65.0352 37.0252 65.3686 37.7727 65.3686 38.7424C65.3686 39.399 65.1766 40.0101 64.7928 40.5758C64.409 41.1414 63.9797 41.5909 63.5049 41.9242C63.8787 42.4394 64.3383 43.0555 64.8837 43.7727C65.4393 44.4798 65.7979 44.9242 65.9595 45.1061C66.5756 45.7626 67.2726 46.1364 68.0504 46.2273L68.0352 46.7121C67.4191 46.702 66.9191 46.6111 66.5352 46.4394C66.1514 46.2576 65.7827 45.9848 65.4292 45.6212C65.0857 45.2576 64.2221 44.1263 62.8383 42.2273C61.8484 42.2273 60.9494 42.197 60.1413 42.1364V46.5909H59.414ZM62.3989 41.6212C62.8433 41.6212 63.3181 41.3283 63.8231 40.7424C64.3282 40.1566 64.5807 39.4798 64.5807 38.7121C64.5807 37.9343 64.3181 37.3485 63.7928 36.9545C63.2777 36.5505 62.5908 36.3485 61.7322 36.3485C61.2777 36.3485 60.7473 36.3687 60.1413 36.4091V41.5454C60.9494 41.596 61.7019 41.6212 62.3989 41.6212Z" fill="white"/>
<path d="M49.943 42.8333L48.3824 46.5909H47.6097L52.1703 35.6818H52.5945L57.1703 46.5909H56.3521L54.7915 42.8333H49.943ZM52.337 36.8939C52.3269 36.904 52.3067 36.9647 52.2764 37.0758C52.1349 37.5101 51.9986 37.8788 51.8673 38.1818L50.2006 42.2121H54.5339L52.8673 38.197C52.5137 37.4293 52.337 36.995 52.337 36.8939Z" fill="white"/>
<path d="M128.262 29.9242V19.0909H128.989V29.2576H133.974V29.9242H128.262Z" fill="white"/>
<path d="M118.791 26.1667L117.23 29.9243H116.457L121.018 19.0152H121.442L126.018 29.9243H125.2L123.639 26.1667H118.791ZM121.185 20.2273C121.175 20.2374 121.154 20.298 121.124 20.4091C120.983 20.8434 120.846 21.2121 120.715 21.5152L119.048 25.5455H123.382L121.715 21.5303C121.361 20.7626 121.185 20.3283 121.185 20.2273Z" fill="white"/>
<path d="M112.639 19.7273H108.973V19.0909H117.033V19.7273H113.366V29.9242H112.639V19.7273Z" fill="white"/>
<path d="M105.919 29.9242V19.0909H106.646V29.9242H105.919Z" fill="white"/>
<path d="M98.1121 19.5758C96.7888 19.5758 95.708 20.0505 94.8696 21C94.0313 21.9495 93.6121 23.1162 93.6121 24.5C93.6121 25.8737 94.0868 27.0404 95.0363 28C95.9858 28.9596 97.1424 29.4394 98.506 29.4394C99.6777 29.4394 100.652 29.2778 101.43 28.9545V24.5H102.158V29.2879C101.279 29.8333 100.046 30.1061 98.4606 30.1061C96.8848 30.1061 95.5515 29.5657 94.4606 28.4848C93.3696 27.3939 92.8242 26.0657 92.8242 24.5C92.8242 22.9242 93.3191 21.601 94.309 20.5303C95.2989 19.4495 96.5666 18.9091 98.1121 18.9091C99.3242 18.9091 100.551 19.1111 101.794 19.5151L101.597 20.1212C100.385 19.7576 99.2232 19.5758 98.1121 19.5758Z" fill="white"/>
<path d="M88.7405 29.9242V19.0909H89.4678V29.9242H88.7405Z" fill="white"/>
<path d="M79.8552 29.3939C81.2794 29.3939 82.4209 29.0101 83.2794 28.2424C84.1481 27.4646 84.5825 26.298 84.5825 24.7424C84.5825 23.1869 84.0926 21.9495 83.1128 21.0303C82.1431 20.1111 80.9411 19.6515 79.5067 19.6515C78.5875 19.6515 77.7895 19.6768 77.1128 19.7273V29.2727C77.7693 29.3535 78.6835 29.3939 79.8552 29.3939ZM79.5067 18.9848C81.1734 18.9848 82.5673 19.505 83.6885 20.5454C84.8097 21.5757 85.3703 22.9798 85.3703 24.7576C85.3703 25.6566 85.2239 26.4545 84.931 27.1515C84.6481 27.8384 84.2542 28.3889 83.7491 28.803C82.7087 29.6414 81.4108 30.0606 79.8552 30.0606C78.835 30.0606 77.6784 30.005 76.3855 29.8939V19.0909C77.4158 19.0202 78.4562 18.9848 79.5067 18.9848Z" fill="white"/>
<path d="M58.4133 28.4848C57.4133 27.404 56.9133 26.0758 56.9133 24.5C56.9133 22.9242 57.4133 21.601 58.4133 20.5303C59.4234 19.4495 60.6961 18.9091 62.2315 18.9091C63.7668 18.9091 65.0396 19.4495 66.0497 20.5303C67.0598 21.601 67.5648 22.9242 67.5648 24.5C67.5648 26.0758 67.0598 27.404 66.0497 28.4848C65.0396 29.5657 63.7668 30.1061 62.2315 30.1061C60.6961 30.1061 59.4234 29.5657 58.4133 28.4848ZM58.9588 21C58.1204 21.9394 57.7012 23.1061 57.7012 24.5C57.7012 25.8939 58.1204 27.0657 58.9588 28.0151C59.8073 28.9646 60.8982 29.4394 62.2315 29.4394C63.5749 29.4394 64.6658 28.9646 65.5042 28.0151C66.3527 27.0657 66.777 25.8939 66.777 24.5C66.777 23.1061 66.3527 21.9394 65.5042 21C64.6658 20.0505 63.5749 19.5758 62.2315 19.5758C60.8881 19.5758 59.7972 20.0505 58.9588 21Z" fill="white"/>
<path d="M51.3673 19.7273H47.7006V19.0909H55.7612V19.7273H52.0945V29.9242H51.3673V19.7273Z" fill="white"/>
<path d="M143.315 2.9091C141.992 2.9091 140.911 3.38385 140.073 4.33334C139.234 5.28284 138.815 6.4495 138.815 7.83334C138.815 9.20708 139.29 10.3737 140.239 11.3333C141.189 12.2929 142.345 12.7727 143.709 12.7727C144.881 12.7727 145.855 12.6111 146.633 12.2879V7.83334H147.36V12.6212C146.482 13.1667 145.249 13.4394 143.664 13.4394C142.088 13.4394 140.754 12.899 139.664 11.8182C138.573 10.7273 138.027 9.399 138.027 7.83334C138.027 6.25758 138.522 4.93435 139.512 3.86364C140.502 2.78284 141.77 2.24243 143.315 2.24243C144.527 2.24243 145.754 2.44445 146.997 2.84849L146.8 3.45455C145.588 3.09092 144.426 2.9091 143.315 2.9091Z" fill="white"/>
<path d="M126.151 11.8182C125.151 10.7374 124.651 9.4091 124.651 7.83334C124.651 6.25758 125.151 4.93435 126.151 3.86364C127.161 2.78284 128.434 2.24243 129.969 2.24243C131.505 2.24243 132.778 2.78284 133.788 3.86364C134.798 4.93435 135.303 6.25758 135.303 7.83334C135.303 9.4091 134.798 10.7374 133.788 11.8182C132.778 12.899 131.505 13.4394 129.969 13.4394C128.434 13.4394 127.161 12.899 126.151 11.8182ZM126.697 4.33334C125.858 5.27274 125.439 6.4394 125.439 7.83334C125.439 9.22728 125.858 10.399 126.697 11.3485C127.545 12.298 128.636 12.7727 129.969 12.7727C131.313 12.7727 132.404 12.298 133.242 11.3485C134.091 10.399 134.515 9.22728 134.515 7.83334C134.515 6.4394 134.091 5.27274 133.242 4.33334C132.404 3.38385 131.313 2.9091 129.969 2.9091C128.626 2.9091 127.535 3.38385 126.697 4.33334Z" fill="white"/>
<path d="M117.904 13.2576V2.42426H118.631V12.5909H123.616V13.2576H117.904Z" fill="white"/>
<path d="M108.433 9.5L106.873 13.2576H106.1L110.66 2.34848H111.085L115.66 13.2576H114.842L113.282 9.5H108.433ZM110.827 3.5606C110.817 3.5707 110.797 3.63131 110.767 3.74242C110.625 4.17676 110.489 4.54545 110.357 4.84848L108.691 8.87878H113.024L111.357 4.86363C111.004 4.09595 110.827 3.66161 110.827 3.5606Z" fill="white"/>
<path d="M95.2968 4.15153L95.3271 5.4394V13.2576H94.5999V2.33334H94.9332L102.07 10.5606C102.554 11.1364 102.928 11.596 103.191 11.9394C103.15 11.4546 103.13 10.899 103.13 10.2727V2.42425H103.857V13.3485H103.524L96.2514 4.96971C95.7463 4.39395 95.4231 4.01011 95.2817 3.81819L95.2968 4.15153Z" fill="white"/>
<path d="M85.1289 9.5L83.5683 13.2576H82.7955L87.3561 2.34848H87.7804L92.3561 13.2576H91.538L89.9773 9.5H85.1289ZM87.5228 3.5606C87.5127 3.5707 87.4925 3.63131 87.4622 3.74242C87.3208 4.17676 87.1844 4.54545 87.0531 4.84848L85.3864 8.87878H89.7198L88.0531 4.86363C87.6996 4.09595 87.5228 3.66161 87.5228 3.5606Z" fill="white"/>
<path d="M70.9848 13.2576V2.42426H76.0151V3.06062H71.7121V7.04547H75.606V7.66668H71.7121V12.6212H76.1818V13.2576H70.9848Z" fill="white"/>
<path d="M66.2638 13.2576V7.83335H58.8244V13.2576H58.0971V2.42426H58.8244V7.18183H66.2638V2.42426H66.9911V13.2576H66.2638Z" fill="white"/>
<path d="M51.3673 3.06062H47.7006V2.42426H55.7612V3.06062H52.0945V13.2576H51.3673V3.06062Z" fill="white"/>
<path d="M27.3904 46.7727C25.8146 46.7727 24.4611 46.2374 23.3298 45.1667C22.1984 44.0858 21.6328 42.7576 21.6328 41.1818C21.6328 39.5959 22.1277 38.2677 23.1176 37.197C24.1075 36.1161 25.3752 35.5757 26.9207 35.5757C28.1328 35.5757 29.3601 35.7778 30.6025 36.1818L30.4055 36.7879C29.1934 36.4242 28.0318 36.2424 26.9207 36.2424C25.5974 36.2424 24.5166 36.7172 23.6782 37.6667C22.8399 38.6161 22.4207 39.7778 22.4207 41.1515C22.4207 42.5252 22.9055 43.697 23.8752 44.6667C24.855 45.6262 26.0267 46.106 27.3904 46.106C28.5823 46.106 29.6126 45.9242 30.4813 45.5606L30.7085 46.0757C30.3247 46.298 29.8197 46.4697 29.1934 46.5909C28.5772 46.7121 27.9762 46.7727 27.3904 46.7727Z" fill="white"/>
<path d="M12.4443 46.5909V35.803C13.4039 35.7323 14.207 35.697 14.8534 35.697C15.8837 35.697 16.7322 35.9646 17.3989 36.5C18.0655 37.0252 18.3989 37.7727 18.3989 38.7424C18.3989 39.399 18.207 40.0101 17.8231 40.5758C17.4393 41.1414 17.01 41.5909 16.5352 41.9242C16.909 42.4394 17.3686 43.0555 17.914 43.7727C18.4696 44.4798 18.8282 44.9242 18.9898 45.1061C19.606 45.7626 20.3029 46.1364 21.0807 46.2273L21.0655 46.7121C20.4494 46.702 19.9494 46.6111 19.5655 46.4394C19.1817 46.2576 18.813 45.9848 18.4595 45.6212C18.1161 45.2576 17.2524 44.1263 15.8686 42.2273C14.8787 42.2273 13.9797 42.197 13.1716 42.1364V46.5909H12.4443ZM15.4292 41.6212C15.8736 41.6212 16.3484 41.3283 16.8534 40.7424C17.3585 40.1566 17.611 39.4798 17.611 38.7121C17.611 37.9343 17.3484 37.3485 16.8231 36.9545C16.308 36.5505 15.6211 36.3485 14.7625 36.3485C14.308 36.3485 13.7777 36.3687 13.1716 36.4091V41.5454C13.9797 41.596 14.7322 41.6212 15.4292 41.6212Z" fill="white"/>
<path d="M2.97333 42.8333L1.41273 46.5909H0.639999L5.20061 35.6818H5.62485L10.2006 46.5909H9.38242L7.82182 42.8333H2.97333ZM5.36727 36.8939C5.35717 36.904 5.33697 36.9647 5.30667 37.0758C5.16525 37.5101 5.02889 37.8788 4.89758 38.1818L3.23091 42.2121H7.56424L5.89757 38.197C5.54404 37.4293 5.36727 36.995 5.36727 36.8939Z" fill="white"/>
<path d="M25.3097 29.3939C26.734 29.3939 27.8754 29.0101 28.734 28.2424C29.6027 27.4646 30.037 26.298 30.037 24.7424C30.037 23.1869 29.5471 21.9495 28.5673 21.0303C27.5976 20.1111 26.3956 19.6515 24.9613 19.6515C24.0421 19.6515 23.2441 19.6768 22.5673 19.7273V29.2727C23.2239 29.3535 24.138 29.3939 25.3097 29.3939ZM24.9613 18.9848C26.6279 18.9848 28.0219 19.505 29.1431 20.5454C30.2643 21.5757 30.8249 22.9798 30.8249 24.7576C30.8249 25.6566 30.6784 26.4545 30.3855 27.1515C30.1027 27.8384 29.7087 28.3889 29.2037 28.803C28.1633 29.6414 26.8653 30.0606 25.3097 30.0606C24.2895 30.0606 23.133 30.005 21.84 29.8939V19.0909C22.8703 19.0202 23.9108 18.9848 24.9613 18.9848Z" fill="white"/>
<path d="M11.5049 29.9242V29.3333C13.2827 27.8485 14.6969 26.4545 15.7474 25.1515C16.7979 23.8485 17.3231 22.7576 17.3231 21.8788C17.3231 21 17.111 20.399 16.6868 20.0758C16.2726 19.7424 15.6413 19.5758 14.7928 19.5758C13.9443 19.5758 13.0757 19.7323 12.1868 20.0455L12.0049 19.4394C12.9948 19.0859 13.9595 18.9091 14.8989 18.9091C15.8484 18.9091 16.6211 19.1364 17.2171 19.5909C17.813 20.0455 18.111 20.7778 18.111 21.7879C18.111 22.7879 17.6161 23.9343 16.6262 25.2273C15.6363 26.5202 14.308 27.8788 12.6413 29.303H18.6868V29.9242H11.5049Z" fill="white"/>
<path d="M2.97333 26.1667L1.41273 29.9243H0.639999L5.20061 19.0152H5.62485L10.2006 29.9243H9.38242L7.82182 26.1667H2.97333ZM5.36727 20.2273C5.35717 20.2374 5.33697 20.298 5.30667 20.4091C5.16525 20.8434 5.02889 21.2121 4.89758 21.5152L3.23091 25.5455H7.56424L5.89757 21.5303C5.54404 20.7626 5.36727 20.3283 5.36727 20.2273Z" fill="white"/>
<path d="M24.0151 13.2576V2.42426H29.0454V3.06062H24.7424V7.04547H28.6363V7.66668H24.7424V12.6212H29.2121V13.2576H24.0151Z" fill="white"/>
<path d="M19.2941 13.2576V7.83335H11.8547V13.2576H11.1275V2.42426H11.8547V7.18183H19.2941V2.42426H20.0214V13.2576H19.2941Z" fill="white"/>
<path d="M4.39758 3.06062H0.730911V2.42426H8.79152V3.06062H5.12485V13.2576H4.39758V3.06062Z" fill="white"/>
<path d="M40.1703 50L39.7915 50L39.7915 1.65573e-08L40.1703 0L40.1703 50Z" fill="white"/>
</svg>
