<svg width="388" height="132" viewBox="0 0 388 132" fill="none" xmlns="http://www.w3.org/2000/svg">
<path d="M334.363 123.48C330.203 123.48 326.629 122.067 323.643 119.24C320.656 116.387 319.163 112.88 319.163 108.72C319.163 104.533 320.469 101.027 323.083 98.2C325.696 95.3466 329.042 93.92 333.122 93.92C336.322 93.92 339.562 94.4533 342.842 95.52L342.322 97.12C339.122 96.16 336.056 95.68 333.122 95.68C329.629 95.68 326.776 96.9333 324.562 99.44C322.349 101.947 321.242 105.013 321.242 108.64C321.242 112.267 322.523 115.36 325.083 117.92C327.669 120.453 330.763 121.72 334.363 121.72C337.509 121.72 340.229 121.24 342.523 120.28L343.122 121.64C342.109 122.227 340.776 122.68 339.122 123C337.496 123.32 335.909 123.48 334.363 123.48Z" fill="black"/>
<path d="M301.35 123V94.4H303.27V121.24H316.43V123H301.35Z" fill="black"/>
<path d="M280.1 123V94.4H282.02V121.24H295.18V123H280.1Z" fill="black"/>
<path d="M256.171 96.92C254.225 96.0933 252.291 95.68 250.371 95.68C246.478 95.68 244.531 97.12 244.531 100C244.531 101.253 244.971 102.427 245.851 103.52C246.731 104.587 247.798 105.547 249.051 106.4C250.305 107.227 251.558 108.08 252.811 108.96C254.065 109.84 255.131 110.893 256.011 112.12C256.891 113.347 257.331 114.68 257.331 116.12C257.331 118.547 256.518 120.387 254.891 121.64C253.265 122.867 251.011 123.48 248.131 123.48C245.278 123.48 242.838 122.747 240.811 121.28L241.771 119.84C243.691 121.093 245.798 121.72 248.091 121.72C250.385 121.72 252.145 121.267 253.371 120.36C254.598 119.427 255.211 118.093 255.211 116.36C255.211 115.16 254.771 114.027 253.891 112.96C253.011 111.867 251.945 110.893 250.691 110.04C249.438 109.16 248.185 108.267 246.931 107.36C245.678 106.453 244.611 105.373 243.731 104.12C242.851 102.867 242.411 101.52 242.411 100.08C242.411 98.1867 243.105 96.6933 244.491 95.6C245.905 94.48 247.798 93.92 250.171 93.92C252.571 93.92 254.798 94.4 256.851 95.36L256.171 96.92Z" fill="black"/>
<path d="M230.826 120.24C228.986 122.4 226.186 123.48 222.426 123.48C218.666 123.48 215.852 122.387 213.986 120.2C212.146 118.013 211.226 115.027 211.226 111.24V94.4H213.146V111.24C213.146 118.28 216.226 121.8 222.386 121.8C228.572 121.8 231.666 118.28 231.666 111.24V94.4H233.586V111.24C233.586 115.053 232.666 118.053 230.826 120.24Z" fill="black"/>
<path d="M195.261 123.48C191.101 123.48 187.528 122.067 184.541 119.24C181.554 116.387 180.061 112.88 180.061 108.72C180.061 104.533 181.368 101.027 183.981 98.2C186.594 95.3466 189.941 93.92 194.021 93.92C197.221 93.92 200.461 94.4533 203.741 95.52L203.221 97.12C200.021 96.16 196.954 95.68 194.021 95.68C190.528 95.68 187.674 96.9333 185.461 99.44C183.248 101.947 182.141 105.013 182.141 108.64C182.141 112.267 183.421 115.36 185.981 117.92C188.568 120.453 191.661 121.72 195.261 121.72C198.408 121.72 201.128 121.24 203.421 120.28L204.021 121.64C203.008 122.227 201.674 122.68 200.021 123C198.394 123.32 196.808 123.48 195.261 123.48Z" fill="black"/>
<path d="M155.803 123V94.52C158.337 94.3333 160.457 94.24 162.163 94.24C164.883 94.24 167.123 94.9467 168.883 96.36C170.643 97.7467 171.523 99.72 171.523 102.28C171.523 104.013 171.017 105.627 170.003 107.12C168.99 108.613 167.857 109.8 166.603 110.68C167.59 112.04 168.803 113.667 170.243 115.56C171.71 117.427 172.657 118.6 173.083 119.08C174.71 120.813 176.55 121.8 178.603 122.04L178.563 123.32C176.937 123.293 175.617 123.053 174.603 122.6C173.59 122.12 172.617 121.4 171.683 120.44C170.777 119.48 168.497 116.493 164.843 111.48C162.23 111.48 159.857 111.4 157.723 111.24V123H155.803ZM163.683 109.88C164.857 109.88 166.11 109.107 167.443 107.56C168.777 106.013 169.443 104.227 169.443 102.2C169.443 100.147 168.75 98.6 167.363 97.56C166.003 96.4933 164.19 95.96 161.923 95.96C160.723 95.96 159.323 96.0133 157.723 96.12V109.68C159.857 109.813 161.843 109.88 163.683 109.88Z" fill="black"/>
<path d="M130.8 113.08L126.68 123H124.64L136.68 94.2H137.8L149.88 123H147.72L143.6 113.08H130.8ZM137.12 97.4C137.093 97.4267 137.04 97.5867 136.96 97.88C136.587 99.0267 136.227 100 135.88 100.8L131.48 111.44H142.92L138.52 100.84C137.587 98.8133 137.12 97.6667 137.12 97.4Z" fill="black"/>
<path d="M337.561 79V50.4H339.481V77.24H352.641V79H337.561Z" fill="black"/>
<path d="M312.558 69.08L308.438 79H306.398L318.438 50.2H319.558L331.638 79H329.478L325.358 69.08H312.558ZM318.878 53.4C318.851 53.4267 318.798 53.5867 318.718 53.88C318.345 55.0267 317.984 56 317.638 56.8L313.238 67.44H324.678L320.278 56.84C319.344 54.8133 318.878 53.6667 318.878 53.4Z" fill="black"/>
<path d="M296.318 52.08H286.638V50.4H307.918V52.08H298.238V79H296.318V52.08Z" fill="black"/>
<path d="M278.577 79V50.4H280.497V79H278.577Z" fill="black"/>
<path d="M257.966 51.68C254.473 51.68 251.62 52.9333 249.406 55.44C247.193 57.9467 246.086 61.0267 246.086 64.68C246.086 68.3067 247.34 71.3866 249.846 73.92C252.353 76.4533 255.406 77.72 259.006 77.72C262.1 77.72 264.673 77.2933 266.726 76.44V64.68H268.646V77.32C266.326 78.76 263.073 79.48 258.886 79.48C254.726 79.48 251.206 78.0533 248.326 75.2C245.446 72.32 244.006 68.8133 244.006 64.68C244.006 60.52 245.313 57.0267 247.926 54.2C250.54 51.3467 253.886 49.92 257.966 49.92C261.166 49.92 264.406 50.4533 267.686 51.52L267.166 53.12C263.966 52.16 260.9 51.68 257.966 51.68Z" fill="black"/>
<path d="M233.225 79V50.4H235.145V79H233.225Z" fill="black"/>
<path d="M209.768 77.6C213.528 77.6 216.541 76.5867 218.808 74.56C221.101 72.5067 222.248 69.4267 222.248 65.32C222.248 61.2133 220.955 57.9467 218.368 55.52C215.808 53.0933 212.635 51.88 208.848 51.88C206.421 51.88 204.315 51.9467 202.528 52.08V77.28C204.261 77.4933 206.675 77.6 209.768 77.6ZM208.848 50.12C213.248 50.12 216.928 51.4933 219.888 54.24C222.848 56.96 224.328 60.6667 224.328 65.36C224.328 67.7333 223.941 69.84 223.168 71.68C222.421 73.4933 221.381 74.9467 220.048 76.04C217.301 78.2533 213.875 79.36 209.768 79.36C207.075 79.36 204.021 79.2133 200.608 78.92V50.4C203.328 50.2133 206.075 50.12 208.848 50.12Z" fill="black"/>
<path d="M153.162 75.2C150.522 72.3466 149.202 68.84 149.202 64.68C149.202 60.52 150.522 57.0267 153.162 54.2C155.828 51.3467 159.188 49.92 163.242 49.92C167.295 49.92 170.655 51.3467 173.322 54.2C175.988 57.0267 177.322 60.52 177.322 64.68C177.322 68.84 175.988 72.3466 173.322 75.2C170.655 78.0533 167.295 79.48 163.242 79.48C159.188 79.48 155.828 78.0533 153.162 75.2ZM154.602 55.44C152.388 57.92 151.282 61 151.282 64.68C151.282 68.36 152.388 71.4533 154.602 73.96C156.842 76.4667 159.722 77.72 163.242 77.72C166.788 77.72 169.668 76.4667 171.882 73.96C174.122 71.4533 175.242 68.36 175.242 64.68C175.242 61 174.122 57.92 171.882 55.44C169.668 52.9333 166.788 51.68 163.242 51.68C159.695 51.68 156.815 52.9333 154.602 55.44Z" fill="black"/>
<path d="M134.56 52.08H124.88V50.4H146.16V52.08H136.48V79H134.56V52.08Z" fill="black"/>
<path d="M377.302 7.67998C373.809 7.67998 370.955 8.93332 368.742 11.44C366.529 13.9467 365.422 17.0267 365.422 20.68C365.422 24.3067 366.675 27.3867 369.182 29.92C371.689 32.4533 374.742 33.72 378.342 33.72C381.435 33.72 384.009 33.2933 386.062 32.44V20.68H387.982V33.32C385.662 34.76 382.409 35.48 378.222 35.48C374.062 35.48 370.542 34.0533 367.662 31.2C364.782 28.32 363.342 24.8133 363.342 20.68C363.342 16.52 364.649 13.0267 367.262 10.2C369.875 7.34665 373.222 5.91998 377.302 5.91998C380.502 5.91998 383.742 6.45332 387.022 7.51998L386.502 9.11998C383.302 8.15998 380.235 7.67998 377.302 7.67998Z" fill="black"/>
<path d="M331.99 31.2C329.35 28.3467 328.03 24.84 328.03 20.68C328.03 16.52 329.35 13.0267 331.99 10.2C334.656 7.34665 338.016 5.91998 342.07 5.91998C346.123 5.91998 349.483 7.34665 352.15 10.2C354.816 13.0267 356.15 16.52 356.15 20.68C356.15 24.84 354.816 28.3467 352.15 31.2C349.483 34.0533 346.123 35.48 342.07 35.48C338.016 35.48 334.656 34.0533 331.99 31.2ZM333.43 11.44C331.216 13.92 330.11 17 330.11 20.68C330.11 24.36 331.216 27.4533 333.43 29.96C335.67 32.4667 338.55 33.72 342.07 33.72C345.616 33.72 348.496 32.4667 350.71 29.96C352.95 27.4533 354.07 24.36 354.07 20.68C354.07 17 352.95 13.92 350.71 11.44C348.496 8.93332 345.616 7.67998 342.07 7.67998C338.523 7.67998 335.643 8.93332 333.43 11.44Z" fill="black"/>
<path d="M310.217 35V6.39999H312.137V33.24H325.298V35H310.217Z" fill="black"/>
<path d="M285.214 25.08L281.094 35H279.054L291.094 6.20001H292.214L304.294 35H302.134L298.014 25.08H285.214ZM291.534 9.40001C291.507 9.42668 291.454 9.58668 291.374 9.88001C291.001 11.0267 290.641 12 290.294 12.8L285.894 23.44H297.334L292.934 12.84C292.001 10.8133 291.534 9.66668 291.534 9.40001Z" fill="black"/>
<path d="M250.534 10.96L250.614 14.36V35H248.694V6.16H249.574L268.414 27.88C269.694 29.4 270.681 30.6133 271.374 31.52C271.267 30.24 271.214 28.7733 271.214 27.12V6.4H273.134V35.24H272.254L253.054 13.12C251.721 11.6 250.867 10.5867 250.494 10.08L250.534 10.96Z" fill="black"/>
<path d="M223.691 25.08L219.571 35H217.531L229.571 6.20001H230.691L242.771 35H240.611L236.491 25.08H223.691ZM230.011 9.40001C229.984 9.42668 229.931 9.58668 229.851 9.88001C229.477 11.0267 229.117 12 228.771 12.8L224.371 23.44H235.811L231.411 12.84C230.477 10.8133 230.011 9.66668 230.011 9.40001Z" fill="black"/>
<path d="M186.35 35V6.39999H199.63V8.07999H188.27V18.6H198.55V20.24H188.27V33.32H200.07V35H186.35Z" fill="black"/>
<path d="M173.887 35V20.68H154.247V35H152.327V6.39999H154.247V18.96H173.887V6.39999H175.807V35H173.887Z" fill="black"/>
<path d="M134.56 8.07999H124.88V6.39999H146.16V8.07999H136.48V35H134.56V8.07999Z" fill="black"/>
<path d="M71.2609 123.48C67.1009 123.48 63.5276 122.067 60.5409 119.24C57.5543 116.387 56.0609 112.88 56.0609 108.72C56.0609 104.533 57.3676 101.027 59.9809 98.2C62.5943 95.3466 65.9409 93.92 70.0209 93.92C73.2209 93.92 76.4609 94.4533 79.7409 95.52L79.2209 97.12C76.0209 96.16 72.9543 95.68 70.0209 95.68C66.5276 95.68 63.6743 96.9333 61.4609 99.44C59.2476 101.947 58.1409 105.013 58.1409 108.64C58.1409 112.267 59.4209 115.36 61.9809 117.92C64.5676 120.453 67.6609 121.72 71.2609 121.72C74.4076 121.72 77.1276 121.24 79.4209 120.28L80.0209 121.64C79.0076 122.227 77.6743 122.68 76.021 123C74.3943 123.32 72.8076 123.48 71.2609 123.48Z" fill="black"/>
<path d="M31.8034 123V94.52C34.3368 94.3333 36.4568 94.24 38.1634 94.24C40.8834 94.24 43.1234 94.9467 44.8834 96.36C46.6434 97.7467 47.5234 99.72 47.5234 102.28C47.5234 104.013 47.0168 105.627 46.0034 107.12C44.9901 108.613 43.8568 109.8 42.6034 110.68C43.5901 112.04 44.8034 113.667 46.2434 115.56C47.7101 117.427 48.6568 118.6 49.0834 119.08C50.7101 120.813 52.5501 121.8 54.6034 122.04L54.5634 123.32C52.9368 123.293 51.6168 123.053 50.6034 122.6C49.5901 122.12 48.6168 121.4 47.6834 120.44C46.7768 119.48 44.4968 116.493 40.8434 111.48C38.2301 111.48 35.8568 111.4 33.7234 111.24V123H31.8034ZM39.6834 109.88C40.8568 109.88 42.1101 109.107 43.4434 107.56C44.7768 106.013 45.4434 104.227 45.4434 102.2C45.4434 100.147 44.7501 98.6 43.3634 97.56C42.0034 96.4933 40.1901 95.96 37.9234 95.96C36.7234 95.96 35.3234 96.0133 33.7234 96.12V109.68C35.8568 109.813 37.8434 109.88 39.6834 109.88Z" fill="black"/>
<path d="M6.8 113.08L2.68 123H0.639999L12.68 94.2H13.8L25.88 123H23.72L19.6 113.08H6.8ZM13.12 97.4C13.0933 97.4267 13.04 97.5867 12.96 97.88C12.5867 99.0267 12.2267 100 11.88 100.8L7.48 111.44H18.92L14.52 100.84C13.5867 98.8133 13.12 97.6667 13.12 97.4Z" fill="black"/>
<path d="M65.7681 77.6C69.5281 77.6 72.5415 76.5867 74.8081 74.56C77.1015 72.5067 78.2481 69.4267 78.2481 65.32C78.2481 61.2133 76.9548 57.9467 74.3681 55.52C71.8081 53.0933 68.6348 51.88 64.8481 51.88C62.4215 51.88 60.3148 51.9467 58.5281 52.08V77.28C60.2615 77.4933 62.6748 77.6 65.7681 77.6ZM64.8481 50.12C69.2481 50.12 72.9281 51.4933 75.8881 54.24C78.8481 56.96 80.3281 60.6667 80.3281 65.36C80.3281 67.7333 79.9415 69.84 79.1681 71.68C78.4215 73.4933 77.3815 74.9467 76.0481 76.04C73.3015 78.2533 69.8748 79.36 65.7681 79.36C63.0748 79.36 60.0215 79.2133 56.6081 78.92V50.4C59.3281 50.2133 62.0748 50.12 64.8481 50.12Z" fill="black"/>
<path d="M29.3234 79V77.44C34.0168 73.52 37.7501 69.84 40.5234 66.4C43.2968 62.96 44.6834 60.08 44.6834 57.76C44.6834 55.44 44.1234 53.8533 43.0034 53C41.9101 52.12 40.2434 51.68 38.0034 51.68C35.7634 51.68 33.4701 52.0933 31.1234 52.92L30.6434 51.32C33.2568 50.3867 35.8034 49.92 38.2834 49.92C40.7901 49.92 42.8301 50.52 44.4034 51.72C45.9768 52.92 46.7634 54.8533 46.7634 57.52C46.7634 60.16 45.4568 63.1866 42.8434 66.6C40.2301 70.0133 36.7234 73.6 32.3234 77.36H48.2834V79H29.3234Z" fill="black"/>
<path d="M6.8 69.08L2.68 79H0.639999L12.68 50.2H13.8L25.88 79H23.72L19.6 69.08H6.8ZM13.12 53.4C13.0933 53.4267 13.04 53.5867 12.96 53.88C12.5867 55.0267 12.2267 56 11.88 56.8L7.48 67.44H18.92L14.52 56.84C13.5867 54.8133 13.12 53.6667 13.12 53.4Z" fill="black"/>
<path d="M62.3503 35V6.39999H75.6303V8.07999H64.2703V18.6H74.5503V20.24H64.2703V33.32H76.0703V35H62.3503Z" fill="black"/>
<path d="M49.8869 35V20.68H30.2469V35H28.3269V6.39999H30.2469V18.96H49.8869V6.39999H51.8069V35H49.8869Z" fill="black"/>
<path d="M10.56 8.07999H0.880005V6.39999H22.16V8.07999H12.48V35H10.56V8.07999Z" fill="black"/>
<path d="M105 132L104 132L104 4.37114e-08L105 0L105 132Z" fill="black"/>
</svg>
